<svg xmlns="http://www.w3.org/2000/svg" xmlns:xlink="http://www.w3.org/1999/xlink" viewBox="0 0 512 512" id="checklist-clipboard">
  <defs>
    <linearGradient id="a" x1="256" x2="256" y1="10" y2="506.137" gradientUnits="userSpaceOnUse">
      <stop offset="0" stop-color="#00efd1"></stop>
      <stop offset="1" stop-color="#00acea"></stop>
    </linearGradient>
    <linearGradient xlink:href="#a" id="b" x1="196" x2="196" y1="10" y2="506.137"></linearGradient>
    <linearGradient xlink:href="#a" id="c" x1="273" x2="273" y1="10" y2="506.137"></linearGradient>
    <linearGradient xlink:href="#a" id="d" x1="293" x2="293" y1="10" y2="506.137"></linearGradient>
  </defs>
  <path fill="url(#a)" d="M420.893,92H347.756A38.609,38.609,0,0,0,311.39,66H299.977c-.715-20.857-17.564-37-38.947-37h-9.58c-21.817,0-39.655,16.475-40.424,37H201.1a40.361,40.361,0,0,0-37.678,26H91.107A7.875,7.875,0,0,0,83,99.74V475.22A7.907,7.907,0,0,0,91.107,483H420.893A7.907,7.907,0,0,0,429,475.22V99.74A7.875,7.875,0,0,0,420.893,92ZM177,105.14C177,92.381,187.811,82,201.1,82H227V67.38C227,55.04,237.968,45,251.45,45h9.58c13.1,0,22.97,9.621,22.97,22.38V82h27.39C324.28,82,334,91.948,334,105.14V141H177ZM350,157V141h21V421H141V141h20v16Zm63,310H99V108h62v17H132.744c-4.418,0-7.744,4-7.744,8.415v295.1c0,4.419,3.326,8.484,7.744,8.484H379.256c4.418,0,7.744-4.065,7.744-8.484v-295.1C387,129,383.674,125,379.256,125H350V108h63Z"></path>
  <path fill="url(#b)" d="M226,264a8,8,0,0,0-8-8H174a8,8,0,0,0-8,8v44a8,8,0,0,0,8,8h44a8,8,0,0,0,8-8Zm-44,8h28v28H182Z"></path>
  <path fill="url(#c)" d="M248,282h50a8,8,0,0,0,0-16H248a8,8,0,0,0,0,16Z"></path>
  <path fill="url(#d)" d="M248,306h90a8,8,0,0,0,0-16H248a8,8,0,0,0,0,16Z"></path>
  <path fill="url(#b)" d="M226,194a8,8,0,0,0-8-8H174a8,8,0,0,0-8,8v44a8,8,0,0,0,8,8h44a8,8,0,0,0,8-8Zm-44,8h28v28H182Z"></path>
  <path fill="url(#c)" d="M248,212h50a8,8,0,0,0,0-16H248a8,8,0,0,0,0,16Z"></path>
  <path fill="url(#d)" d="M248,236h90a8,8,0,0,0,0-16H248a8,8,0,0,0,0,16Z"></path>
  <path fill="url(#b)" d="M226,334a8,8,0,0,0-8-8H174a8,8,0,0,0-8,8v44a8,8,0,0,0,8,8h44a8,8,0,0,0,8-8Zm-44,8h28v28H182Z"></path>
  <path fill="url(#c)" d="M248,352h50a8,8,0,0,0,0-16H248a8,8,0,0,0,0,16Z"></path>
  <path fill="url(#d)" d="M248,376h90a8,8,0,0,0,0-16H248a8,8,0,0,0,0,16Z"></path>
</svg>
