<svg xmlns="http://www.w3.org/2000/svg" width="24" height="24" fill="none" viewBox="0 0 24 24" id="user-square">
  <path fill="url(#paint0_linear_1233_5080)" fill-rule="evenodd" d="M2 5C2 3.34315 3.34315 2 5 2H19C20.6569 2 22 3.34315 22 5V19C22 20.6569 20.6569 22 19 22H5C3.34315 22 2 20.6569 2 19V5ZM5 4C4.44772 4 4 4.44772 4 5V19C4 19.5523 4.44772 20 5 20H19C19.5523 20 20 19.5523 20 19V5C20 4.44772 19.5523 4 19 4H5ZM12.0004 8.61554C11.0186 8.61554 10.2227 9.41148 10.2227 10.3933C10.2227 11.3752 11.0186 12.1711 12.0004 12.1711C12.9823 12.1711 13.7782 11.3752 13.7782 10.3933C13.7782 9.41148 12.9823 8.61554 12.0004 8.61554ZM8.22266 10.3933C8.22266 8.30691 9.91402 6.61554 12.0004 6.61554C14.0868 6.61554 15.7782 8.30691 15.7782 10.3933C15.7782 12.006 14.7678 13.3826 13.3455 13.9246C14.9588 14.1351 16.428 14.7192 17.5939 15.5799C18.0382 15.9079 18.1325 16.534 17.8045 16.9783C17.4765 17.4226 16.8504 17.517 16.4061 17.1889C15.2938 16.3679 13.744 15.8378 12 15.8378C10.256 15.8378 8.7062 16.3679 7.5939 17.1889C7.14957 17.517 6.52347 17.4226 6.19546 16.9783C5.86746 16.534 5.96176 15.9079 6.4061 15.5799C7.57212 14.7191 9.04154 14.135 10.6552 13.9245C9.23299 13.3824 8.22266 12.0059 8.22266 10.3933Z" clip-rule="evenodd"></path>
  <defs>
    <linearGradient id="paint0_linear_1233_5080" x1="12" x2="12" y1="2" y2="22" gradientUnits="userSpaceOnUse">
      <stop stop-color="#57EAEA"></stop>
      <stop offset="1" stop-color="#2BC9FF"></stop>
    </linearGradient>
  </defs>
</svg>
